<svg version="1.2" xmlns="http://www.w3.org/2000/svg" viewBox="0 0 1000 1000" width="1000" height="1000">
	<title>Nieuw project</title>
	<style>
		.s0 { fill: #00ff84 } 
	</style>
	<path id="" fill-rule="evenodd" class="s0" d="m914 742.2l-418.8 241.8-418.7-241.8v-483.5l418.7-241.7 418.8 241.7zm-354.6-430.5c12 0 23.4-4.7 31.8-13.1 8.5-8.5 13.2-19.9 13.2-31.8 0-12-4.7-23.4-13.2-31.8-8.4-8.5-19.8-13.2-31.8-13.2-11.9 0-23.3 4.7-31.7 13.2-8.5 8.4-13.2 19.8-13.2 31.8 0 11.9 4.7 23.3 13.2 31.8 8.4 8.4 19.8 13.1 31.7 13.1zm-78.9 98c0.9-0.4 1.8-0.8 2.7-1.2l-15.8 59.5c-5.3 19.8-0.1 40.9 13.7 56l66.3 72.2 20.6 82.6c4 16 20.3 25.8 36.3 21.8 16-4 25.9-20.3 21.8-36.3l-21.5-86.3c-1.8-7.4-5.4-14-10.5-19.5l-46.4-50.6 18.1-61.4 9 21.5c4.1 10 11.7 18.1 21.4 23l25 12.5c14.8 7.4 32.8 1.4 40.2-13.4 7.4-14.8 1.4-32.8-13.4-40.2l-20.2-10.1-14.3-34.5c-16.1-38.5-53.8-63.6-95.5-63.6-21.4 0-42.5 4.5-62 13.1l-7.5 3.3c-30.8 13.7-54.4 39.8-65 71.7l-2.4 7.3c-5.2 15.8 3.3 32.7 18.9 38 15.7 5.2 32.7-3.3 38-19l2.4-7.3c5.3-16 17.1-28.9 32.5-35.8 0 0 7.5-3.2 7.6-3.3zm-28.1 126.6l-23.4 58.4-55.7 55.7c-11.7 11.7-11.7 30.7 0 42.4 11.7 11.7 30.8 11.7 42.5 0l57.8-57.8c4.3-4.3 7.6-9.4 9.9-15.1l13.6-33.9-38.2-41.6c-2.3-2.5-4.5-5.2-6.5-8.1zm-57.8-57.7c-7.2-4.1-16.3-1.7-20.5 5.6l-30 51.9-51-29.5c-14.3-8.2-32.6-3.3-40.9 11l-59.9 103.9c-8.3 14.4-3.4 32.7 10.9 41l51.9 30c14.4 8.2 32.7 3.3 41-11l59.9-103.9c1.4-2.5 2.4-4.9 3.1-7.5l41-71c4.1-7.2 1.7-16.3-5.5-20.5z"/>
</svg>